<svg width="40" height="40" viewBox="0 0 40 40" fill="none" xmlns="http://www.w3.org/2000/svg">
<path d="M39.9712 32.6712C39.9613 32.6306 39.9569 32.5888 39.9388 32.5513C39.9362 32.5456 39.9369 32.5388 39.9338 32.5331L36.25 25.165V5.9375C36.25 4.90375 35.4081 4.06188 34.3744 4.06188C34.3731 4.06188 34.3725 4.0625 34.3713 4.0625H33.125V2.8125C33.125 2.46688 32.8456 2.1875 32.5 2.1875H28.75C28.4044 2.1875 28.125 2.46688 28.125 2.8125V4.0625H11.875V2.8125C11.875 2.46688 11.5956 2.1875 11.25 2.1875H7.5C7.15438 2.1875 6.875 2.46688 6.875 2.8125V4.0625H5.625C4.59125 4.0625 3.75 4.90375 3.75 5.9375V25.165L0.065625 32.5331C0.0625 32.5394 0.063125 32.5462 0.060625 32.5519C0.043125 32.5894 0.038125 32.63 0.028125 32.6706C0.018125 32.7119 0.004375 32.7519 0.003125 32.7931C0.00375 32.8 0 32.8056 0 32.8125V35.9375C0 35.9719 0.01375 36.0019 0.019375 36.0344C0.070625 37.015 0.8725 37.7988 1.86375 37.8106C1.8675 37.8106 1.87063 37.8125 1.87438 37.8125H38.1244H38.125C39.1587 37.8125 40 36.9712 40 35.9375V32.8125C40 32.8056 39.9963 32.8 39.9963 32.7938C39.995 32.7519 39.9813 32.7125 39.9712 32.6712ZM33.75 34.0625H30V33.4375H33.75V34.0625ZM1.63625 32.1875L4.76125 25.9375H35.2388L38.3638 32.1875H1.63625ZM10 34.0625H6.25V33.4375H10V34.0625ZM29.375 3.4375H31.875V4.0625H29.375V3.4375ZM8.125 3.4375H10.625V4.0625H8.125V3.4375ZM5.625 5.3125H34.3744H34.3763C34.72 5.31312 35 5.59313 35 5.9375V24.6875H5V5.9375C5 5.5925 5.28 5.3125 5.625 5.3125ZM38.125 36.5625C38.1244 36.5625 38.1244 36.5625 38.125 36.5625H1.885C1.54 36.5625 1.26 36.2825 1.26 35.9375C1.26 35.9206 1.25125 35.9056 1.25 35.8894V33.4375H5V34.6875C5 35.0331 5.27938 35.3125 5.625 35.3125H10.625C10.9706 35.3125 11.25 35.0331 11.25 34.6875V33.4375H28.75V34.6875C28.75 35.0331 29.0294 35.3125 29.375 35.3125H34.375C34.7206 35.3125 35 35.0331 35 34.6875V33.4375H38.75V35.9375C38.75 36.2825 38.47 36.5625 38.125 36.5625Z" fill="#FFA807"/>
<path d="M23.75 34.0625C23.4044 34.0625 23.125 34.3419 23.125 34.6875H16.875C16.875 34.3419 16.5956 34.0625 16.25 34.0625C15.9044 34.0625 15.625 34.3419 15.625 34.6875V35.3125C15.625 35.6581 15.9044 35.9375 16.25 35.9375H23.75C24.0956 35.9375 24.375 35.6581 24.375 35.3125V34.6875C24.375 34.3419 24.0956 34.0625 23.75 34.0625Z" fill="#FFA807"/>
<path d="M34.0729 27.8125H28.7623C28.4167 27.8125 28.1373 28.0919 28.1373 28.4375V28.4381V28.75H23.9692L22.8861 27.9375C22.8623 27.92 22.8336 27.9144 22.8079 27.9C22.7673 27.8775 22.7286 27.8537 22.6836 27.8406C22.6454 27.83 22.6086 27.8294 22.5698 27.8262C22.5286 27.8219 22.4886 27.8156 22.4473 27.82C22.4042 27.8244 22.3648 27.84 22.3236 27.8538C22.2929 27.8631 22.2611 27.8637 22.2323 27.8781L20.3579 28.8162C20.3348 28.8281 20.3204 28.8481 20.2998 28.8619C20.2636 28.8844 20.2317 28.9081 20.2011 28.9387C20.1698 28.9694 20.1461 29.0031 20.1229 29.0388C20.1098 29.0588 20.0892 29.0731 20.0786 29.0956C20.0717 29.1088 20.0729 29.1237 20.0667 29.1375C20.0504 29.1775 20.0417 29.2181 20.0336 29.2606C20.0261 29.2994 20.0186 29.3362 20.0186 29.375C20.0186 29.4138 20.0267 29.4506 20.0336 29.4894C20.0417 29.5319 20.0498 29.5731 20.0667 29.6125C20.0729 29.6263 20.0717 29.6412 20.0786 29.6544C20.0961 29.69 20.1211 29.7194 20.1442 29.7494C20.1542 29.7625 20.1604 29.7756 20.1711 29.7881C20.2204 29.8437 20.2786 29.8875 20.3423 29.9219C20.3479 29.925 20.3517 29.9313 20.3573 29.9344L22.2317 30.8706C22.2323 30.8713 22.2336 30.8706 22.2342 30.8713C22.3048 30.9063 22.3829 30.9187 22.4617 30.925C22.4779 30.9262 22.4942 30.9369 22.5104 30.9369H22.5111H22.5117C22.5142 30.9369 22.5167 30.9356 22.5192 30.9356C22.5786 30.935 22.6367 30.925 22.6929 30.9081C22.7104 30.9025 22.7267 30.8931 22.7436 30.8862C22.7854 30.8694 22.8261 30.8488 22.8636 30.8231C22.8704 30.8181 22.8786 30.8163 22.8854 30.8113L23.9686 30H28.1373V30.3125C28.1373 30.6581 28.4167 30.9375 28.7623 30.9375H34.0729C34.9348 30.9375 35.6354 30.2369 35.6354 29.375C35.6354 28.5131 34.9348 27.8125 34.0729 27.8125ZM22.4448 29.58L22.0342 29.375L22.4454 29.1694L22.7198 29.375L22.4448 29.58ZM29.3873 29.6875V29.0625H34.0729C34.2448 29.0625 34.3854 29.2031 34.3854 29.375C34.3854 29.5469 34.2448 29.6875 34.0729 29.6875H29.3873Z" fill="#FFA807"/>
<path d="M17.1968 27.8125H9.77115L9.94365 27.4669C9.94678 27.4606 9.94615 27.4537 9.94865 27.4487C9.96615 27.4106 9.97115 27.3694 9.98115 27.3294C9.99115 27.2881 10.0049 27.2481 10.0062 27.2069C10.0062 27.2 10.0099 27.1944 10.0099 27.1881C10.0099 27.1569 9.99678 27.1306 9.9924 27.1006C9.98553 27.0556 9.98178 27.0106 9.96615 26.9688C9.95178 26.93 9.92803 26.8994 9.9074 26.865C9.88615 26.8306 9.86803 26.7962 9.84115 26.7669C9.81053 26.7331 9.77303 26.71 9.7349 26.6838C9.71053 26.6669 9.69303 26.6431 9.6649 26.6287C9.65865 26.6256 9.6524 26.6262 9.64678 26.6237C9.60865 26.6062 9.56678 26.6006 9.52615 26.5906C9.48553 26.5812 9.44615 26.5675 9.40553 26.5663C9.39803 26.5663 9.3924 26.5625 9.38615 26.5625H6.2599C6.22865 26.5625 6.20178 26.5756 6.17178 26.58C6.12678 26.5869 6.0824 26.5906 6.0399 26.6069C6.0024 26.6206 5.9724 26.6431 5.93865 26.6637C5.90365 26.685 5.86865 26.7031 5.83803 26.7319C5.8049 26.7619 5.7824 26.7988 5.75678 26.8356C5.73928 26.8613 5.7149 26.8794 5.70053 26.9075L3.82553 30.6581C3.8224 30.6644 3.82303 30.6713 3.82053 30.6769C3.80303 30.7137 3.79803 30.755 3.78803 30.7956C3.77803 30.8369 3.76428 30.8769 3.76303 30.9181C3.76303 30.925 3.75928 30.9306 3.75928 30.9369C3.75928 30.9681 3.7724 30.9944 3.77678 31.0244C3.78365 31.0694 3.7874 31.1144 3.80365 31.1569C3.8174 31.195 3.84115 31.2256 3.86178 31.26C3.8824 31.2944 3.90115 31.3281 3.92803 31.3581C3.95865 31.3919 3.99615 31.415 4.03365 31.4412C4.05865 31.4581 4.07615 31.4819 4.10428 31.4963C4.1099 31.4994 4.11615 31.4975 4.12115 31.5006C4.20053 31.5375 4.28678 31.5613 4.37928 31.5619C4.38053 31.5619 4.38178 31.5625 4.38303 31.5625H4.38365H7.5099H7.51115C7.5849 31.5619 7.65615 31.5444 7.7249 31.5194C7.74428 31.5119 7.7624 31.5044 7.78053 31.4956C7.83428 31.4694 7.88365 31.4363 7.92803 31.3956C7.9374 31.3875 7.94803 31.3819 7.95678 31.3725C8.00053 31.3281 8.0399 31.2769 8.06928 31.2175L8.20928 30.9375H17.1974C18.0593 30.9375 18.7599 30.2369 18.7599 29.375C18.7599 28.5131 18.0587 27.8125 17.1968 27.8125ZM5.3949 30.3131L6.6449 27.8125H8.37365L7.12365 30.3131H5.3949ZM9.14615 29.0625H17.1968C17.3687 29.0625 17.5093 29.2031 17.5093 29.375C17.5093 29.5469 17.3687 29.6875 17.1968 29.6875H8.83365L9.14615 29.0625Z" fill="#FFA807"/>
<path d="M8.13574 10.3125C9.16949 10.3125 10.0107 9.47125 10.0107 8.4375C10.0107 7.40375 9.16949 6.5625 8.13574 6.5625C7.10199 6.5625 6.26074 7.40375 6.26074 8.4375C6.26074 9.47125 7.10137 10.3125 8.13574 10.3125ZM8.13574 7.8125C8.48074 7.8125 8.76074 8.0925 8.76074 8.4375C8.76074 8.7825 8.48074 9.0625 8.13574 9.0625C7.79074 9.0625 7.51074 8.7825 7.51074 8.4375C7.51074 8.0925 7.79074 7.8125 8.13574 7.8125Z" fill="#FFA807"/>
<path d="M8.13574 14.6868C9.16949 14.6868 10.0107 13.8455 10.0107 12.8118C10.0107 11.778 9.16949 10.9368 8.13574 10.9368C7.10199 10.9368 6.26074 11.778 6.26074 12.8118C6.26074 13.8455 7.10137 14.6868 8.13574 14.6868ZM8.13574 12.1868C8.48074 12.1868 8.76074 12.4668 8.76074 12.8118C8.76074 13.1568 8.48074 13.4368 8.13574 13.4368C7.79074 13.4368 7.51074 13.1568 7.51074 12.8118C7.51074 12.4668 7.79074 12.1868 8.13574 12.1868Z" fill="#FFA807"/>
<path d="M8.13574 19.0613C9.16949 19.0613 10.0107 18.22 10.0107 17.1863C10.0107 16.1525 9.16949 15.3113 8.13574 15.3113C7.10199 15.3113 6.26074 16.1525 6.26074 17.1863C6.26074 18.22 7.10137 19.0613 8.13574 19.0613ZM8.13574 16.5613C8.48074 16.5613 8.76074 16.8413 8.76074 17.1863C8.76074 17.5313 8.48074 17.8113 8.13574 17.8113C7.79074 17.8113 7.51074 17.5313 7.51074 17.1863C7.51074 16.8413 7.79074 16.5613 8.13574 16.5613Z" fill="#FFA807"/>
<path d="M8.13574 23.4355C9.16949 23.4355 10.0107 22.5943 10.0107 21.5605C10.0107 20.5268 9.16949 19.6855 8.13574 19.6855C7.10199 19.6855 6.26074 20.5268 6.26074 21.5605C6.26074 22.5943 7.10137 23.4355 8.13574 23.4355ZM8.13574 20.9355C8.48074 20.9355 8.76074 21.2155 8.76074 21.5605C8.76074 21.9055 8.48074 22.1855 8.13574 22.1855C7.79074 22.1855 7.51074 21.9055 7.51074 21.5605C7.51074 21.2155 7.79074 20.9355 8.13574 20.9355Z" fill="#FFA807"/>
<path d="M12.5093 10.3125C13.543 10.3125 14.3843 9.47125 14.3843 8.4375C14.3843 7.40375 13.543 6.5625 12.5093 6.5625C11.4755 6.5625 10.6343 7.40375 10.6343 8.4375C10.6343 9.47125 11.4749 10.3125 12.5093 10.3125ZM12.5093 7.8125C12.8543 7.8125 13.1343 8.0925 13.1343 8.4375C13.1343 8.7825 12.8543 9.0625 12.5093 9.0625C12.1643 9.0625 11.8843 8.7825 11.8843 8.4375C11.8843 8.0925 12.1643 7.8125 12.5093 7.8125Z" fill="#FFA807"/>
<path d="M12.5093 14.6868C13.543 14.6868 14.3843 13.8455 14.3843 12.8118C14.3843 11.778 13.543 10.9368 12.5093 10.9368C11.4755 10.9368 10.6343 11.778 10.6343 12.8118C10.6343 13.8455 11.4749 14.6868 12.5093 14.6868ZM12.5093 12.1868C12.8543 12.1868 13.1343 12.4668 13.1343 12.8118C13.1343 13.1568 12.8543 13.4368 12.5093 13.4368C12.1643 13.4368 11.8843 13.1568 11.8843 12.8118C11.8843 12.4668 12.1643 12.1868 12.5093 12.1868Z" fill="#FFA807"/>
<path d="M16.2598 11.7106V15.9356C15.9141 15.9356 15.6348 16.215 15.6348 16.5606V22.8113V22.8119V22.8125C15.6348 23.1581 15.9141 23.4375 16.2598 23.4375H19.3854C19.731 23.4375 20.0104 23.1581 20.0104 22.8125V16.5606C20.0104 16.215 19.731 15.9356 19.3854 15.9356V11.71C20.1379 11.2044 20.6341 10.3469 20.6341 9.375C20.6341 7.82438 19.3723 6.5625 17.8223 6.5625C16.2716 6.5625 15.0098 7.82438 15.0098 9.375C15.0098 10.3475 15.5066 11.2056 16.2598 11.7106ZM18.7604 17.1856V22.1875H16.8848V17.1856H18.7604ZM18.1354 15.9356H17.5098V12.155C17.6135 12.1669 17.7154 12.1869 17.8223 12.1869C17.9298 12.1869 18.031 12.1669 18.1354 12.155V15.9356ZM17.8223 7.8125C18.6835 7.8125 19.3841 8.51313 19.3841 9.375C19.3841 10.2362 18.6835 10.9369 17.8223 10.9369C16.9604 10.9369 16.2598 10.2362 16.2598 9.375C16.2598 8.51313 16.9604 7.8125 17.8223 7.8125Z" fill="#FFA807"/>
<path d="M12.5093 19.0613C13.543 19.0613 14.3843 18.22 14.3843 17.1863C14.3843 16.1525 13.543 15.3113 12.5093 15.3113C11.4755 15.3113 10.6343 16.1525 10.6343 17.1863C10.6343 18.22 11.4749 19.0613 12.5093 19.0613ZM12.5093 16.5613C12.8543 16.5613 13.1343 16.8413 13.1343 17.1863C13.1343 17.5313 12.8543 17.8113 12.5093 17.8113C12.1643 17.8113 11.8843 17.5313 11.8843 17.1863C11.8843 16.8413 12.1643 16.5613 12.5093 16.5613Z" fill="#FFA807"/>
<path d="M12.5093 23.4355C13.543 23.4355 14.3843 22.5943 14.3843 21.5605C14.3843 20.5268 13.543 19.6855 12.5093 19.6855C11.4755 19.6855 10.6343 20.5268 10.6343 21.5605C10.6343 22.5943 11.4749 23.4355 12.5093 23.4355ZM12.5093 20.9355C12.8543 20.9355 13.1343 21.2155 13.1343 21.5605C13.1343 21.9055 12.8543 22.1855 12.5093 22.1855C12.1643 22.1855 11.8843 21.9055 11.8843 21.5605C11.8843 21.2155 12.1643 20.9355 12.5093 20.9355Z" fill="#FFA807"/>
<path d="M24.1105 23.3731C24.1155 23.3756 24.1205 23.375 24.1249 23.3769C24.1668 23.3956 24.2137 23.4013 24.2599 23.4106C24.2949 23.4181 24.328 23.4306 24.3637 23.4319C24.3705 23.4319 24.3762 23.4356 24.3824 23.4356C24.428 23.4356 24.468 23.4194 24.5105 23.41C24.5399 23.4031 24.5699 23.4025 24.598 23.3925C24.6555 23.3713 24.7043 23.3381 24.7518 23.3019C24.7674 23.2894 24.7855 23.2825 24.7993 23.2694C24.853 23.2206 24.8943 23.1619 24.9287 23.0981C24.933 23.0906 24.9399 23.0856 24.943 23.0787C24.9437 23.0775 24.9437 23.0762 24.9443 23.075C24.9724 23.0144 24.9855 22.9481 24.993 22.8787C24.9949 22.8637 25.0024 22.8481 25.003 22.8325C25.003 22.825 25.0074 22.8194 25.0074 22.8113V21.7731H25.6324V22.8113C25.6324 22.8169 25.6355 22.8212 25.6355 22.8263C25.6362 22.8656 25.6505 22.9031 25.6587 22.9425C25.6687 22.985 25.6724 23.0288 25.6899 23.0669C25.6924 23.0719 25.6918 23.0769 25.6937 23.0806C25.7237 23.1438 25.7637 23.1975 25.8105 23.245C25.8193 23.2538 25.8293 23.2594 25.8387 23.2681C25.8843 23.3106 25.9355 23.345 25.9918 23.3713C26.0062 23.3787 26.0212 23.385 26.0362 23.3912C26.1074 23.4187 26.1818 23.4375 26.2587 23.4375C26.2874 23.4375 26.3155 23.4225 26.3443 23.4181C26.4012 23.41 26.4587 23.4037 26.5099 23.3806C26.5155 23.3781 26.5212 23.3794 26.5262 23.3769C27.503 22.9131 28.1337 21.915 28.1337 20.835C28.1337 19.8625 27.6368 19.0044 26.8837 18.4994V8.12563C26.8837 7.26375 26.1824 6.5625 25.3205 6.5625C24.4587 6.5625 23.7574 7.26375 23.7574 8.12563C23.7574 8.12688 23.758 8.1275 23.758 8.12875V18.5C23.0062 19.0056 22.5093 19.8631 22.5093 20.835C22.5099 21.9131 23.138 22.9088 24.1105 23.3731ZM26.8574 21.0206C26.7968 20.7381 26.558 20.5225 26.258 20.5225H24.383C24.0855 20.5225 23.8493 20.7337 23.7855 21.0119C23.778 20.9519 23.7599 20.895 23.7599 20.835C23.7599 19.9737 24.4605 19.2731 25.3218 19.2731C26.1837 19.2731 26.8843 19.9737 26.8843 20.835C26.8843 20.8987 26.8649 20.9581 26.8574 21.0206ZM25.0087 8.12375C25.0093 7.9525 25.1493 7.8125 25.3212 7.8125C25.4937 7.8125 25.6343 7.95313 25.6343 8.12563V18.055C25.5305 18.0431 25.4287 18.0231 25.3218 18.0231C25.2143 18.0231 25.113 18.0431 25.0087 18.055V8.12563C25.0087 8.125 25.0087 8.12438 25.0087 8.12375Z" fill="#FFA807"/>
<path d="M17.841 9.99927C18.186 9.99927 18.466 9.71989 18.466 9.37427C18.466 9.02864 18.186 8.74927 17.841 8.74927H17.8341C17.4891 8.74927 17.2129 9.02864 17.2129 9.37427C17.2129 9.71989 17.4954 9.99927 17.841 9.99927Z" fill="#FFA807"/>
<path d="M29.3877 11.4993V21.873C29.3877 22.7349 30.0889 23.4361 30.9508 23.4361C31.8127 23.4361 32.5139 22.7349 32.5139 21.873C32.5139 21.8718 32.5133 21.8711 32.5133 21.8699V11.4986C33.2658 10.993 33.7621 10.1355 33.7621 9.16364C33.7621 8.08552 33.1339 7.08989 32.1608 6.62489C32.1558 6.62239 32.1508 6.62302 32.1464 6.62114C32.1058 6.60239 32.0596 6.59739 32.0146 6.58739C31.9777 6.57989 31.9433 6.56677 31.9071 6.56614C31.9002 6.56614 31.8952 6.56239 31.8889 6.56239C31.8464 6.56239 31.8089 6.57802 31.7696 6.58677C31.7364 6.59364 31.7039 6.59427 31.6727 6.60614C31.6177 6.62614 31.5714 6.65864 31.5252 6.69302C31.5077 6.70614 31.4877 6.71427 31.4714 6.72927C31.4183 6.77739 31.3777 6.83614 31.3433 6.89989C31.3396 6.90739 31.3321 6.91177 31.3289 6.91927C31.3283 6.92052 31.3283 6.92177 31.3283 6.92302C31.2996 6.98364 31.2864 7.04989 31.2789 7.11864C31.2771 7.13427 31.2696 7.14989 31.2689 7.16552C31.2689 7.17302 31.2646 7.17864 31.2646 7.18677V8.22489H30.6396V7.18677C30.6396 7.18114 30.6364 7.17677 30.6364 7.17177C30.6358 7.13239 30.6214 7.09489 30.6133 7.05614C30.6033 7.01364 30.5996 6.96927 30.5821 6.93052C30.5796 6.92614 30.5802 6.92114 30.5783 6.91739C30.5639 6.88614 30.5383 6.86552 30.5189 6.83802C30.4946 6.80239 30.4739 6.76552 30.4427 6.73614C30.4077 6.70239 30.3664 6.68114 30.3252 6.65677C30.2977 6.64114 30.2733 6.61989 30.2427 6.60864C30.1883 6.58677 30.1302 6.57927 30.0721 6.57364C30.0521 6.57177 30.0346 6.56177 30.0139 6.56177C30.0108 6.56177 30.0083 6.56364 30.0052 6.56364C29.9502 6.56427 29.8958 6.58052 29.8408 6.59677C29.8152 6.60427 29.7871 6.60552 29.7627 6.61614C29.7564 6.61864 29.7502 6.61802 29.7452 6.62052C28.7683 7.08427 28.1377 8.08239 28.1377 9.16239C28.1377 10.1361 28.6339 10.9943 29.3877 11.4993ZM31.2633 21.8749C31.2621 22.0461 31.1221 22.1861 30.9502 22.1861C30.7777 22.1861 30.6371 22.0455 30.6371 21.873V11.9436C30.7408 11.9555 30.8427 11.9755 30.9496 11.9755C31.0571 11.9755 31.1583 11.9555 31.2627 11.9436V21.873C31.2633 21.8736 31.2633 21.8743 31.2633 21.8749ZM29.4146 8.97802C29.4752 9.25989 29.7139 9.47614 30.0139 9.47614H31.8889C32.1864 9.47614 32.4227 9.26489 32.4864 8.98677C32.4939 9.04677 32.5121 9.10364 32.5121 9.16364C32.5121 10.0249 31.8114 10.7255 30.9502 10.7255C30.0883 10.7255 29.3877 10.0249 29.3877 9.16364C29.3877 9.10052 29.4064 9.04052 29.4146 8.97802Z" fill="#FFA807"/>
</svg>
