<svg width="40" height="40" viewBox="0 0 40 40" fill="none" xmlns="http://www.w3.org/2000/svg">
<path d="M39.3701 36.25C39.3701 35.9044 39.0907 35.625 38.7451 35.625H33.1201V3.75C33.1201 1.68187 31.4382 0 29.3701 0H4.37012C2.30199 0 0.620117 1.68187 0.620117 3.75C0.620117 4.09563 0.899492 4.375 1.24512 4.375H6.87012L6.87012 36.25C6.87012 38.3181 8.55199 40 10.6201 40H35.6201C37.6882 40 39.3701 38.3181 39.3701 36.25ZM35.6201 38.75C34.4589 38.75 33.4882 37.9506 33.2089 36.875H38.032C37.752 37.9506 36.782 38.75 35.6201 38.75ZM4.37012 1.25H26.5826C26.1189 1.76688 25.797 2.41063 25.6764 3.125H1.95887C2.23824 2.04937 3.20887 1.25 4.37012 1.25ZM8.12012 36.25L8.12012 4.375H26.2451C26.5907 4.375 26.8701 4.09563 26.8701 3.75C26.8701 2.37125 27.9914 1.25 29.3701 1.25C30.7489 1.25 31.8701 2.37125 31.8701 3.75L31.8701 36.25C31.8701 37.2106 32.2364 38.0862 32.8326 38.75H10.6201C9.24137 38.75 8.12012 37.6288 8.12012 36.25Z" fill="#FFA807"/>
<path d="M37.3905 3.76247C37.348 3.77059 37.3068 3.77872 37.2668 3.79559C37.2536 3.80184 37.2386 3.80059 37.2255 3.80747C37.2036 3.81872 37.1893 3.83809 37.1693 3.85122C37.1324 3.87497 37.0993 3.89934 37.068 3.93059C37.038 3.96059 37.0149 3.99309 36.9924 4.02747C36.978 4.04872 36.9574 4.06372 36.9461 4.08684L35.6961 6.58684C35.693 6.59309 35.6936 6.59997 35.6911 6.60497C35.6874 6.61309 35.6811 6.61934 35.678 6.62747C35.663 6.66372 35.6624 6.70184 35.6543 6.73997C35.6468 6.77622 35.6349 6.81059 35.6336 6.84684C35.6336 6.85372 35.6299 6.85997 35.6299 6.86622V31.8662C35.6299 32.2118 35.9093 32.4912 36.2549 32.4912H38.7549C39.1005 32.4912 39.3799 32.2118 39.3799 31.8662V6.86622V6.86559C39.3799 6.86434 39.3793 6.86372 39.3793 6.86246C39.3786 6.78246 39.363 6.70247 39.3318 6.62747C39.328 6.61872 39.3218 6.61247 39.3186 6.60372C39.3155 6.59809 39.3168 6.59184 39.3143 6.58684L38.0643 4.08684C38.0611 4.08059 38.0555 4.07684 38.0518 4.07184C38.0174 4.00747 37.9736 3.94997 37.918 3.90059C37.9055 3.88997 37.8924 3.88372 37.8793 3.87372C37.8486 3.85059 37.8193 3.82559 37.7843 3.80809C37.7711 3.80122 37.7561 3.80247 37.743 3.79622C37.703 3.77997 37.6618 3.77122 37.6193 3.76309C37.5805 3.75559 37.5436 3.74809 37.5049 3.74809C37.4661 3.74809 37.4293 3.75497 37.3905 3.76247ZM37.063 8.55747C37.3074 8.80184 37.7024 8.80184 37.9468 8.55747L38.1299 8.37434V24.9912H36.8799V8.37434L37.063 8.55747ZM37.9943 6.74246L37.5049 7.23184L37.0155 6.74246L37.5049 5.76372L37.9943 6.74246ZM36.8799 29.9912H38.1299V31.2406H36.8799V29.9912ZM37.5049 27.4912C37.5049 27.8368 37.7843 28.1162 38.1299 28.1162V28.7412H36.8799V28.1162C37.2255 28.1162 37.5049 27.8368 37.5049 27.4912C37.5049 27.1456 37.2255 26.8662 36.8799 26.8662V26.2412H38.1299V26.8662C37.7843 26.8662 37.5049 27.1462 37.5049 27.4912Z" fill="#FFA807"/>
<path d="M16.9744 33.7269H29.35C29.3525 33.7269 29.3544 33.7281 29.3563 33.7281C29.7019 33.7281 29.9813 33.4488 29.9813 33.1031V31.2269C29.9813 30.8813 29.7019 30.6019 29.3563 30.6019C29.0106 30.6019 28.7313 30.8813 28.7313 31.2269V32.4769H27.4813V31.2269C27.4813 30.8813 27.2019 30.6019 26.8563 30.6019C26.8406 30.6019 26.8263 30.61 26.8106 30.6112C26.7956 30.61 26.7813 30.6019 26.7656 30.6019H19.3575C19.0119 30.6019 18.7325 30.8813 18.7325 31.2269V32.4769H17.485V25.5931C17.485 25.2475 17.2056 24.9681 16.86 24.9681C16.8488 24.9681 16.8406 24.9738 16.8294 24.9744L11.2363 24.9769L11.2363 11.86H18.7319L18.7338 13.0812C18.7331 13.0919 18.7275 13.1 18.7275 13.1106C18.7275 13.1213 18.7331 13.13 18.7338 13.1406L18.7406 18.0369C18.7381 18.0581 18.7275 18.0769 18.7275 18.0994V18.1C18.7275 18.1225 18.7381 18.1412 18.7406 18.1644L18.745 21.2331V25.6075C18.745 25.9531 19.0244 26.2325 19.37 26.2325H26.8563C27.2019 26.2325 27.4813 25.9531 27.4813 25.6075V21.8575H28.7319V23.1038C28.7319 23.4494 29.0113 23.7288 29.3569 23.7288C29.7025 23.7288 29.9819 23.4494 29.9819 23.1038V21.2806C29.9831 21.2644 29.9919 21.2494 29.9919 21.2325C29.9919 21.2156 29.9831 21.2006 29.9819 21.1844V19.3563C29.9819 19.0106 29.7025 18.7313 29.3569 18.7313C29.0113 18.7313 28.7319 19.0106 28.7319 19.3563V20.6075H26.8688C26.8644 20.6075 26.8606 20.605 26.8563 20.605C26.8519 20.605 26.8481 20.6075 26.8438 20.6075H19.9938L19.9906 18.7263L26.23 18.735H26.2306C26.2625 18.735 26.2894 18.7219 26.3194 18.7175C26.3719 18.7094 26.4263 18.7062 26.4738 18.6862C26.5406 18.6575 26.6 18.615 26.6525 18.5663C26.6588 18.5606 26.6663 18.5581 26.6719 18.5531C26.7681 18.4569 26.8238 18.3256 26.8413 18.1825C26.8444 18.1581 26.8556 18.1363 26.8556 18.1112V18.1106V9.36188H28.7306V10.6131C28.7306 10.9587 29.01 11.2381 29.3556 11.2381C29.7013 11.2381 29.9806 10.9587 29.9806 10.6131V8.73688C29.9806 8.39125 29.7013 8.11188 29.3556 8.11188H10.6113C10.2656 8.11188 9.98626 8.39125 9.98626 8.73688V11.1994C9.98563 11.2125 9.97876 11.2231 9.97876 11.2362C9.97876 11.2494 9.98563 11.26 9.98626 11.2731L9.98626 33.1019C9.98626 33.4475 10.2656 33.7269 10.6113 33.7269H16.745C16.7838 33.7344 16.8188 33.75 16.86 33.75C16.9013 33.75 16.9363 33.7344 16.9744 33.7269ZM19.9825 31.8519H26.2313V32.4769H19.9825V31.8519ZM16.235 31.8519V32.4769H11.2363V31.8519H16.235ZM11.2363 30.6019V28.1019H16.235V30.6019H11.2363ZM16.235 26.2244V26.8519H11.2363V26.2269L16.235 26.2244ZM25.6063 11.8619V12.4856H19.9825L19.9819 11.8619H25.6063ZM19.98 10.6119L19.9781 9.36063H21.8563V10.6119H19.98ZM16.2319 9.36063V10.61H11.2363V9.36063H16.2319ZM17.4819 10.61V9.36063H18.7281L18.73 10.61H17.4819ZM23.7306 24.9819V23.7281H26.2306V24.9819H23.7306ZM22.4806 23.7281V24.9819H19.9944V23.7281H22.4806ZM26.2306 22.4781H19.9944V21.8569H26.2306V22.4781ZM19.9844 13.7356H25.6063V17.4837L19.99 17.4756L19.9844 13.7356ZM25.6063 10.6119H23.1063V9.36063H25.6063V10.6119Z" fill="#FFA807"/>
<path d="M28.7312 12.4868V17.4806C28.7312 17.8262 29.0106 18.1056 29.3562 18.1056C29.7018 18.1056 29.9812 17.8262 29.9812 17.4806V12.4868C29.9812 12.1412 29.7018 11.8618 29.3562 11.8618C29.0106 11.8618 28.7312 12.1412 28.7312 12.4868Z" fill="#FFA807"/>
<path d="M28.7312 24.9832V29.3519C28.7312 29.6976 29.0106 29.9769 29.3562 29.9769C29.7018 29.9769 29.9812 29.6976 29.9812 29.3519V24.9832C29.9812 24.6376 29.7018 24.3582 29.3562 24.3582C29.0106 24.3582 28.7312 24.6376 28.7312 24.9832Z" fill="#FFA807"/>
<path d="M17.495 16.875C17.495 16.5294 17.2156 16.25 16.87 16.25H13.1206C12.775 16.25 12.4956 16.5294 12.4956 16.875V21.25C12.4956 21.5956 12.775 21.875 13.1206 21.875H16.87C17.2156 21.875 17.495 21.5956 17.495 21.25V16.875ZM13.7456 20.625V17.5H16.245V20.625H13.7456Z" fill="#FFA807"/>
</svg>
