<svg width="40" height="40" viewBox="0 0 40 40" fill="none" xmlns="http://www.w3.org/2000/svg">
<path d="M28.75 28.1206H25.8844L25 27.2356V25.5168C27.9837 23.785 30 20.5612 30 16.87V15.005H30.01C30.3556 15.005 30.635 14.7256 30.635 14.38V11.8787C30.635 11.5331 30.3556 11.2537 30.01 11.2537H29.9744C29.7231 7.19121 27.0044 3.65746 23.1363 2.37933V1.59558C23.1363 1.58183 23.1287 1.56996 23.1281 1.55621C23.125 1.51183 23.1144 1.47121 23.1025 1.42996C23.0919 1.39183 23.0837 1.35558 23.0662 1.32121C23.0487 1.28496 23.025 1.25621 23.0006 1.22433C22.9762 1.19121 22.9531 1.15996 22.9225 1.13308C22.8944 1.10808 22.8619 1.09058 22.8294 1.06996C22.7919 1.04746 22.7562 1.02621 22.7137 1.01121C22.7006 1.00621 22.6912 0.996833 22.6775 0.993083C20.9469 0.513083 19.07 0.511208 17.3444 0.986833C17.3312 0.990583 17.3219 0.999958 17.3081 1.00433C17.2663 1.01871 17.2294 1.04058 17.1912 1.06371C17.1581 1.08308 17.1263 1.10183 17.0981 1.12683C17.0675 1.15371 17.045 1.18558 17.02 1.21808C16.9963 1.24996 16.9725 1.27996 16.955 1.31496C16.9381 1.34996 16.9288 1.38621 16.9175 1.42496C16.9063 1.46558 16.8956 1.50558 16.8931 1.54871C16.8919 1.56246 16.885 1.57496 16.885 1.58933V2.37308C13.0044 3.64433 10.2781 7.18121 10.0256 11.2537H10.0106C9.665 11.2537 9.38563 11.5331 9.38563 11.8787V14.38C9.38563 14.7243 9.66312 15.0025 10.0075 15.0043L10 16.8675V16.8687C10 16.8687 10 16.8693 10 16.87C10 20.5612 12.0162 23.7843 15 25.5168V27.2356L14.1169 28.1193L11.2513 28.1199C8.14875 28.1199 5.625 30.6437 5.625 33.7462L5.62563 38.1193C5.62563 38.8087 6.18625 39.3693 6.87563 39.3693H33.125C33.8144 39.3693 34.375 38.8087 34.375 38.1193V33.7456C34.375 30.6437 31.8519 28.1206 28.75 28.1206ZM23.9331 32.0524C23.6887 32.2968 23.6887 32.6918 23.9331 32.9362L24.8 33.8031L21.5625 38.1193H20.9131L22.5231 33.9799C22.5231 33.9793 22.5231 33.9793 22.5231 33.9787L24.61 28.6137L25.1813 29.1849L25.1856 29.1893L25.9912 29.9956L23.9331 32.0524ZM18.4375 38.1193L15.2 33.8031L16.0669 32.9362C16.3113 32.6918 16.3113 32.2968 16.0669 32.0524L14.0087 29.9956L14.8175 29.1862C14.8175 29.1862 14.8175 29.1862 14.8181 29.1856L15.39 28.6137L17.4769 33.9793L19.0869 38.1193H18.4375ZM20 28.8337L20.9025 29.3318L20.3369 29.9962H19.6631L19.0975 29.3318L20 28.8337ZM19.7888 31.2456H20.2113L21.2706 33.7537L20 37.0206L18.7294 33.7537L19.7888 31.2456ZM21.9206 32.0818L21.3506 30.7324L22.0194 29.9474L22.6213 30.2793L21.9206 32.0818ZM17.9806 29.9474L18.65 30.7324L18.0794 32.0824L17.3787 30.2793L17.9806 29.9474ZM10.6375 13.755C10.6369 13.755 10.6363 13.755 10.6356 13.755V12.5037H29.385V13.755H10.6375ZM16.885 3.69308V5.00496C16.885 5.35058 17.1644 5.62996 17.51 5.62996C17.8556 5.62996 18.135 5.35058 18.135 5.00496V2.08246C19.3619 1.81746 20.6563 1.81808 21.8863 2.08746V5.00496C21.8863 5.35058 22.1656 5.62996 22.5113 5.62996C22.8569 5.62996 23.1363 5.35058 23.1363 5.00496V3.70183C26.2888 4.91308 28.485 7.86933 28.7244 11.2537H11.2756C11.5156 7.85933 13.72 4.89933 16.885 3.69308ZM11.25 16.87L11.2575 15.005H28.75V16.87C28.75 21.695 24.825 25.6199 20 25.6199C15.175 25.6199 11.25 21.695 11.25 16.87ZM20 26.8699C21.3263 26.8699 22.5906 26.6049 23.75 26.1337V27.3774L23.0787 29.1031L20.3025 27.5718C20.2813 27.5599 20.2581 27.5599 20.2362 27.5512C20.1975 27.5356 20.16 27.5224 20.1187 27.5143C20.0794 27.5062 20.0406 27.5031 20.0012 27.5031C19.9619 27.5031 19.9231 27.5062 19.8837 27.5143C19.8425 27.5224 19.8044 27.535 19.7662 27.5512C19.7444 27.5606 19.7213 27.5606 19.7 27.5718L16.9237 29.1031L16.25 27.3781V26.1343C17.4094 26.6049 18.6737 26.8699 20 26.8699ZM11.2513 29.3699H12.8669L12.6831 29.5537C12.4387 29.7981 12.4387 30.1931 12.6831 30.4374L14.7413 32.4943L13.9331 33.3024C13.9137 33.3218 13.905 33.3481 13.8888 33.3693C13.8625 33.4031 13.8381 33.4349 13.82 33.4731C13.8025 33.5093 13.7919 33.5449 13.7812 33.5837C13.7706 33.6231 13.7612 33.6606 13.7587 33.7012C13.7556 33.7406 13.76 33.7787 13.765 33.8187C13.7694 33.8581 13.775 33.8962 13.7875 33.9356C13.8006 33.9749 13.82 34.0112 13.8412 34.0487C13.8544 34.0718 13.8588 34.0981 13.8756 34.1199L16.8756 38.1199H6.87563L6.875 33.7462C6.875 31.3331 8.83813 29.3699 11.2513 29.3699ZM33.125 38.1193H23.125L26.125 34.1193C26.1412 34.0974 26.1456 34.0712 26.1594 34.0481C26.1806 34.0106 26.2 33.9749 26.2131 33.9349C26.2263 33.8956 26.2313 33.8581 26.2356 33.8181C26.2406 33.7787 26.245 33.7406 26.2419 33.7006C26.2394 33.6606 26.2294 33.6224 26.2194 33.5831C26.2087 33.5443 26.1987 33.5087 26.1806 33.4724C26.1625 33.4343 26.1381 33.4024 26.1119 33.3687C26.0956 33.3474 26.0869 33.3212 26.0675 33.3018L25.2594 32.4937L27.3175 30.4368C27.5619 30.1924 27.5619 29.7974 27.3175 29.5531L27.1344 29.3699H28.75C31.1619 29.3699 33.125 31.3331 33.125 33.7449V38.1193Z" fill="#FFA807"/>
</svg>
