<svg width="40" height="40" viewBox="0 0 40 40" fill="none" xmlns="http://www.w3.org/2000/svg">
<path d="M12.5023 0.00439453H3.75732C3.06795 0.00439453 2.50732 0.565019 2.50732 1.25439V4.37877C2.50732 5.06814 3.06795 5.62877 3.75732 5.62877H5.00732V10.0038H5.00607C4.66045 10.0038 4.38107 10.2831 4.38107 10.6288C4.38107 10.9744 4.66045 11.2538 5.00607 11.2538H5.00732V11.8788H5.00607C4.66045 11.8788 4.38107 12.1581 4.38107 12.5038C4.38107 12.8494 4.66045 13.1288 5.00607 13.1288H5.00732V13.7538H5.00607C4.66045 13.7538 4.38107 14.0331 4.38107 14.3788C4.38107 14.7244 4.66045 15.0038 5.00607 15.0038H5.00732V15.6288H5.00607C4.66045 15.6288 4.38107 15.9081 4.38107 16.2538C4.38107 16.5994 4.66045 16.8788 5.00607 16.8788H5.00732V17.5038H5.00607C4.66045 17.5038 4.38107 17.7831 4.38107 18.1288C4.38107 18.4744 4.66045 18.7538 5.00607 18.7538H5.00732V19.3788H5.00607C4.66045 19.3788 4.38107 19.6581 4.38107 20.0038C4.38107 20.3494 4.66045 20.6288 5.00607 20.6288H5.00732V21.2538H5.00607C4.66045 21.2538 4.38107 21.5331 4.38107 21.8788C4.38107 22.2244 4.66045 22.5038 5.00607 22.5038H5.00732V23.7413C5.00732 24.0869 5.2867 24.3663 5.63232 24.3663H10.6286C10.9742 24.3663 11.2536 24.0869 11.2536 23.7413V22.5038H11.2561C11.6017 22.5038 11.8811 22.2244 11.8811 21.8788C11.8811 21.5331 11.6017 21.2538 11.2561 21.2538H11.2536V20.6288H11.2561C11.6017 20.6288 11.8811 20.3494 11.8811 20.0038C11.8811 19.6581 11.6017 19.3788 11.2561 19.3788H11.2536V18.7538H11.2561C11.6017 18.7538 11.8811 18.4744 11.8811 18.1288C11.8811 17.7831 11.6017 17.5038 11.2561 17.5038H11.2536V16.8788H11.2561C11.6017 16.8788 11.8811 16.5994 11.8811 16.2538C11.8811 15.9081 11.6017 15.6288 11.2561 15.6288H11.2536V15.0038H11.2561C11.6017 15.0038 11.8811 14.7244 11.8811 14.3788C11.8811 14.0331 11.6017 13.7538 11.2561 13.7538H11.2536V13.1288H11.2561C11.6017 13.1288 11.8811 12.8494 11.8811 12.5038C11.8811 12.1581 11.6017 11.8788 11.2561 11.8788H11.2536V11.2538H11.2561C11.6017 11.2538 11.8811 10.9744 11.8811 10.6288C11.8811 10.2831 11.6017 10.0038 11.2561 10.0038H11.2536V5.62877H12.5023C13.1917 5.62877 13.7523 5.06814 13.7523 4.37877V1.25439C13.7523 0.565019 13.1911 0.00439453 12.5023 0.00439453ZM10.0036 23.1163H6.25732V22.5038H10.0036V23.1163ZM10.0036 21.2538H6.25732V20.6288H10.0036V21.2538ZM10.0036 19.3788H6.25732V18.7538H10.0036V19.3788ZM10.0036 17.5038H6.25732V16.8788H10.0036V17.5038ZM10.0036 15.6288H6.25732V15.0038H10.0036V15.6288ZM10.0036 13.7538H6.25732V13.1288H10.0036V13.7538ZM10.0036 11.8788H6.25732V11.2538H10.0036V11.8788ZM10.0036 10.0038H6.25732V5.62877H10.0036V10.0038ZM12.5004 4.37877H10.6286H5.63232H3.75732V1.25439H12.5023L12.5004 4.37877Z" fill="#FFA807"/>
<path d="M36.2426 34.3713H34.9926V29.9963H34.9938C35.3394 29.9963 35.6188 29.7169 35.6188 29.3713C35.6188 29.0257 35.3394 28.7463 34.9938 28.7463H34.9926V28.1213H34.9938C35.3394 28.1213 35.6188 27.8419 35.6188 27.4963C35.6188 27.1507 35.3394 26.8713 34.9938 26.8713H34.9926V26.2463H34.9938C35.3394 26.2463 35.6188 25.9669 35.6188 25.6213C35.6188 25.2757 35.3394 24.9963 34.9938 24.9963H34.9926V24.3713H34.9938C35.3394 24.3713 35.6188 24.0919 35.6188 23.7463C35.6188 23.4007 35.3394 23.1213 34.9938 23.1213H34.9926V22.4963H34.9938C35.3394 22.4963 35.6188 22.2169 35.6188 21.8713C35.6188 21.5257 35.3394 21.2463 34.9938 21.2463H34.9926V20.6213H34.9938C35.3394 20.6213 35.6188 20.3419 35.6188 19.9963C35.6188 19.6507 35.3394 19.3713 34.9938 19.3713H34.9926V18.7463H34.9938C35.3394 18.7463 35.6188 18.4669 35.6188 18.1213C35.6188 17.7757 35.3394 17.4963 34.9938 17.4963H34.9926V16.2588C34.9926 15.9132 34.7132 15.6338 34.3676 15.6338H29.3713C29.0257 15.6338 28.7463 15.9132 28.7463 16.2588V17.4963H28.7438C28.3982 17.4963 28.1188 17.7757 28.1188 18.1213C28.1188 18.4669 28.3982 18.7463 28.7438 18.7463H28.7463V19.3713H28.7438C28.3982 19.3713 28.1188 19.6507 28.1188 19.9963C28.1188 20.3419 28.3982 20.6213 28.7438 20.6213H28.7463V21.2463H28.7438C28.3982 21.2463 28.1188 21.5257 28.1188 21.8713C28.1188 22.2169 28.3982 22.4963 28.7438 22.4963H28.7463V23.1213H28.7438C28.3982 23.1213 28.1188 23.4007 28.1188 23.7463C28.1188 24.0919 28.3982 24.3713 28.7438 24.3713H28.7463V24.9963H28.7438C28.3982 24.9963 28.1188 25.2757 28.1188 25.6213C28.1188 25.9669 28.3982 26.2463 28.7438 26.2463H28.7463V26.8713H28.7438C28.3982 26.8713 28.1188 27.1507 28.1188 27.4963C28.1188 27.8419 28.3982 28.1213 28.7438 28.1213H28.7463V28.7463H28.7438C28.3982 28.7463 28.1188 29.0257 28.1188 29.3713C28.1188 29.7169 28.3982 29.9963 28.7438 29.9963H28.7463V34.3713H27.4976C26.8082 34.3713 26.2476 34.9319 26.2476 35.6213V38.7457C26.2476 39.435 26.8082 39.9957 27.4976 39.9957H36.2426C36.9319 39.9957 37.4926 39.435 37.4926 38.7457V35.6213C37.4926 34.9325 36.9319 34.3713 36.2426 34.3713ZM29.9963 16.8838H33.7426V17.4963H29.9963V16.8838ZM29.9963 18.7463H33.7426V19.3713H29.9963V18.7463ZM29.9963 20.6213H33.7426V21.2463H29.9963V20.6213ZM29.9963 22.4963H33.7426V23.1213H29.9963V22.4963ZM29.9963 24.3713H33.7426V24.9963H29.9963V24.3713ZM29.9963 26.2463H33.7426V26.8713H29.9963V26.2463ZM29.9963 28.1213H33.7426V28.7463H29.9963V28.1213ZM29.9963 29.9963H33.7426V34.3713H29.9963V29.9963ZM36.2401 38.7457H27.4976V35.6213H29.3713H34.3676H36.2426L36.2401 38.7457Z" fill="#FFA807"/>
<path d="M22.5145 21.4363C22.397 21.3188 22.2388 21.2532 22.0726 21.2532H17.932C17.7657 21.2532 17.607 21.3188 17.4901 21.4363L14.5601 24.365C14.4426 24.4825 14.377 24.6407 14.377 24.8069V28.95C14.377 29.1163 14.4426 29.275 14.5601 29.3919L17.4901 32.3207C17.6076 32.4382 17.7657 32.5038 17.932 32.5038H22.0726C22.2388 32.5038 22.3976 32.4382 22.5145 32.3207L25.4445 29.3919C25.562 29.2744 25.6276 29.1163 25.6276 28.95V24.8063C25.6276 24.64 25.562 24.4813 25.4445 24.3644L22.5145 21.4363ZM24.3776 28.6907L21.8138 31.2532H18.1907L15.627 28.6907V25.065L18.1907 22.5025H21.8138L24.3776 25.065V28.6907Z" fill="#FFA807"/>
<path d="M16.8774 26.8782C16.8774 28.6013 18.2793 30.0032 20.0024 30.0032C21.7256 30.0032 23.1274 28.6013 23.1274 26.8782C23.1274 25.155 21.7256 23.7532 20.0024 23.7532C18.2793 23.7532 16.8774 25.155 16.8774 26.8782ZM21.8774 26.8782C21.8774 27.9119 21.0362 28.7532 20.0024 28.7532C18.9687 28.7532 18.1274 27.9119 18.1274 26.8782C18.1274 25.8444 18.9687 25.0032 20.0024 25.0032C21.0362 25.0032 21.8774 25.8444 21.8774 26.8782Z" fill="#FFA807"/>
<path d="M22.5145 7.67251C22.397 7.55501 22.2388 7.48938 22.0726 7.48938H17.932C17.7657 7.48938 17.607 7.55501 17.4901 7.67251L14.5601 10.6013C14.4426 10.7188 14.377 10.8769 14.377 11.0431V15.1863C14.377 15.3525 14.4426 15.5113 14.5601 15.6281L17.4901 18.5569C17.6076 18.6744 17.7657 18.74 17.932 18.74H22.0726C22.2388 18.74 22.3976 18.6744 22.5145 18.5569L25.4445 15.6281C25.562 15.5106 25.6276 15.3525 25.6276 15.1863V11.0431C25.6276 10.8769 25.562 10.7181 25.4445 10.6013L22.5145 7.67251ZM24.3776 14.9275L21.8138 17.49H18.1907L15.627 14.9275V11.3019L18.1907 8.73938H21.8138L24.3776 11.3019V14.9275Z" fill="#FFA807"/>
<path d="M16.8774 13.1144C16.8774 14.8375 18.2793 16.2394 20.0024 16.2394C21.7256 16.2394 23.1274 14.8375 23.1274 13.1144C23.1274 11.3913 21.7256 9.98938 20.0024 9.98938C18.2793 9.98938 16.8774 11.3919 16.8774 13.1144ZM21.8774 13.1144C21.8774 14.1481 21.0362 14.9894 20.0024 14.9894C18.9687 14.9894 18.1274 14.1481 18.1274 13.1144C18.1274 12.0806 18.9687 11.2394 20.0024 11.2394C21.0362 11.2394 21.8774 12.0806 21.8774 13.1144Z" fill="#FFA807"/>
</svg>
